<svg width="1600" height="245" viewBox="0 0 1600 245" fill="none" xmlns="http://www.w3.org/2000/svg">
<path d="M906.833 187.084V184.126H909.791V187.084H906.834V190.042H903.875V193.001H900.917V190.042H903.875V187.084H906.833ZM915.708 190.043V193.001H912.75V190.043H915.708ZM693.834 181.167H687.917V190.042H693.834V181.167H696.792V190.042H693.834V193H684.959V178.209H693.834V181.167ZM732.291 184.125H738.208V178.209H741.166V193H738.208V187.084H732.291V193H729.333V178.209H732.291V184.125ZM785.542 181.167H779.625V193H776.667V181.167H770.75V178.209H785.542V181.167ZM818.083 181.167H821.042V184.125H824V181.167H826.958V178.209H829.917V193H826.958V184.125H824V187.084H821.042V184.125H818.083V193H815.125V178.209H818.083V181.167ZM862.458 190.042H871.333V193H859.5V178.209H862.458V190.042ZM912.75 187.084V190.043H909.791V187.084H912.75ZM906.834 184.125H903.875V181.167H906.834V184.125ZM912.75 184.125H909.792V181.167H912.75V184.125ZM903.875 181.167H900.917V178.209H903.875V181.167ZM915.708 181.167H912.75V178.209H915.708V181.167ZM918.667 169.334H682V163.417H918.667V169.334ZM713.95 51C721.05 51 727.854 51.592 734.362 52.4795C740.575 53.367 746.492 55.7333 752.112 59.2832C758.916 63.7207 764.242 69.6374 768.088 77.0332C771.638 84.1332 773.708 93.0089 773.708 102.771C773.708 112.534 771.638 121.113 767.496 128.805C763.354 136.496 758.029 142.413 751.521 146.259C746.196 149.809 740.279 151.879 734.066 153.062C727.854 153.95 721.05 154.542 713.95 154.542H682V51H713.95ZM785.542 87.6836H818.084V51L841.75 86.5V117.858L818.084 154.542V111.055H785.542V154.542H758.917V143.005C763.354 139.159 767.2 134.425 770.454 128.805C774.596 121.113 776.667 112.534 776.667 102.771C776.667 92.7131 774.596 84.1332 770.75 76.7373C767.792 70.8209 763.65 66.0879 758.917 62.2422V51H785.542V87.6836ZM869.854 81.1748L889.38 51H918.667L882.871 100.996L918.667 154.542H889.38L869.854 117.858L850.329 154.542H821.042L853.584 100.996L821.042 51H850.329L869.854 81.1748ZM708.92 135.312H709.512C715.428 135.312 720.162 135.312 724.304 135.017C728.149 134.721 731.995 133.537 735.545 131.171C739.686 128.508 742.941 124.663 745.308 119.93C747.378 115.196 748.562 109.575 748.562 102.475C748.266 95.9664 747.082 90.0497 744.716 85.3164C742.349 80.5831 738.799 76.7377 734.065 74.0752C730.516 72.0044 726.966 71.1162 723.12 70.8203C719.274 70.5245 714.837 70.5254 709.512 70.5254H708.92V135.312Z" fill="#2095F3"/>
</svg>
